<?xml version="1.0" encoding="UTF-8" standalone="no"?>
<!-- Generator: Adobe Illustrator 16.0.0, SVG Export Plug-In . SVG Version: 6.00 Build 0)  -->

<svg
   xmlns:dc="http://purl.org/dc/elements/1.1/"
   xmlns:cc="http://creativecommons.org/ns#"
   xmlns:rdf="http://www.w3.org/1999/02/22-rdf-syntax-ns#"
   xmlns:svg="http://www.w3.org/2000/svg"
   xmlns="http://www.w3.org/2000/svg"
   xmlns:sodipodi="http://sodipodi.sourceforge.net/DTD/sodipodi-0.dtd"
   xmlns:inkscape="http://www.inkscape.org/namespaces/inkscape"
   version="1.1"
   id="Capa_1"
   x="0px"
   y="0px"
   width="512px"
   height="512px"
   viewBox="0 0 457.03 457.03"
   style="enable-background:new 0 0 457.03 457.03;"
   xml:space="preserve"
   inkscape:version="0.91 r13725"
   sodipodi:docname="icon-link.svg"><metadata
     id="metadata41"><rdf:RDF><cc:Work
         rdf:about=""><dc:format>image/svg+xml</dc:format><dc:type
           rdf:resource="http://purl.org/dc/dcmitype/StillImage" /><dc:title></dc:title></cc:Work></rdf:RDF></metadata><defs
     id="defs39" /><sodipodi:namedview
     pagecolor="#ffffff"
     bordercolor="#666666"
     borderopacity="1"
     objecttolerance="10"
     gridtolerance="10"
     guidetolerance="10"
     inkscape:pageopacity="0"
     inkscape:pageshadow="2"
     inkscape:window-width="1790"
     inkscape:window-height="871"
     id="namedview37"
     showgrid="false"
     inkscape:zoom="0.4609375"
     inkscape:cx="-113.76314"
     inkscape:cy="207.77676"
     inkscape:window-x="82"
     inkscape:window-y="56"
     inkscape:window-maximized="0"
     inkscape:current-layer="layer1"
     showborder="true" /><g
     id="g7" /><g
     id="g9" /><g
     id="g11" /><g
     id="g13" /><g
     id="g15" /><g
     id="g17" /><g
     id="g19" /><g
     id="g21" /><g
     id="g23" /><g
     id="g25" /><g
     id="g27" /><g
     id="g29" /><g
     id="g31" /><g
     id="g33" /><g
     id="g35" /><g
     inkscape:groupmode="layer"
     id="layer1"
     inkscape:label="bg"
     style="display:inline"><path
       style="fill:#0971ba;fill-opacity:1"
       d="m -142.93488,-56.498862 c -1.66181,0 -2.99994,1.338126 -2.99994,2.999933 l 0,533.043329 c 0,1.6618 1.33813,2.99848 2.99994,2.99848 l 779.69487,0 c 1.66182,0 2.99995,-1.33668 2.99995,-2.99848 l 0,-533.043329 c 0,-1.661807 -1.33813,-2.999933 -2.99995,-2.999933 l -779.69487,0 z M 321.8321,33.341671 c 26.18529,0 52.37063,9.988638 72.35272,29.966943 39.94481,39.954916 39.94481,104.742526 0,144.696606 l -72.36743,72.34239 c -39.94057,39.96421 -104.73454,39.96421 -144.68185,0 -6.2924,-6.27466 -11.21503,-13.34372 -15.53788,-20.6348 l 33.62568,-33.62273 c 1.5984,-1.6119 3.57118,-2.53535 5.45721,-3.62345 2.32464,7.94223 6.38313,15.46148 12.62912,21.70829 19.94667,19.96273 52.40314,19.93489 72.33801,0 l 72.34389,-72.34239 c 19.96183,-19.96017 19.96183,-52.4092 0,-72.354176 -19.93571,-19.944991 -52.38457,-19.944991 -72.34389,0 l -25.72439,25.753806 c -20.87619,-8.12864 -43.36805,-10.31433 -65.26317,-7.10572 L 249.47941,63.308614 C 269.46152,43.330309 295.64683,33.341671 321.8321,33.341671 Z M 213.30673,141.86705 c 26.18666,0 52.37086,9.99012 72.33947,29.96842 6.29493,6.28142 11.24286,13.32536 15.53788,20.6451 L 267.5628,226.0886 c -1.59754,1.60009 -3.54698,2.496 -5.44398,3.59846 -2.34658,-7.93213 -6.40924,-15.44853 -12.64089,-21.68184 -19.94499,-19.9585 -52.3814,-19.9585 -72.34239,0 l -72.35272,72.34239 c -19.946679,19.95428 -19.946679,52.40473 0,72.36741 19.94834,19.93488 52.40773,19.93488 72.35272,0 l 25.74351,-25.75378 c 20.85848,8.11344 43.35623,10.31817 65.26314,7.09099 l -54.83399,54.82813 c -39.95577,39.94394 -104.73998,39.94394 -144.696591,0 -39.952392,-39.96505 -39.952392,-104.73406 0,-144.70246 l 72.340931,-72.34243 c 19.97832,-19.9783 46.16754,-29.96842 72.35419,-29.96842 z"
       id="rect4170"
       inkscape:connector-curvature="0" /></g><g
     inkscape:groupmode="layer"
     id="layer2"
     inkscape:label="link" /></svg>