<?xml version="1.0" encoding="UTF-8" standalone="no"?>
<svg
   xmlns:dc="http://purl.org/dc/elements/1.1/"
   xmlns:cc="http://creativecommons.org/ns#"
   xmlns:rdf="http://www.w3.org/1999/02/22-rdf-syntax-ns#"
   xmlns:svg="http://www.w3.org/2000/svg"
   xmlns="http://www.w3.org/2000/svg"
   xmlns:sodipodi="http://sodipodi.sourceforge.net/DTD/sodipodi-0.dtd"
   xmlns:inkscape="http://www.inkscape.org/namespaces/inkscape"
   width="2500"
   height="2500"
   viewBox="0 0 256 256"
   preserveAspectRatio="xMidYMid"
   id="svg4136"
   version="1.1"
   inkscape:version="0.91 r13725"
   sodipodi:docname="redmine-reworked.svg">
  <metadata
     id="metadata4154">
    <rdf:RDF>
      <cc:Work
         rdf:about="">
        <dc:format>image/svg+xml</dc:format>
        <dc:type
           rdf:resource="http://purl.org/dc/dcmitype/StillImage" />
        <dc:title></dc:title>
      </cc:Work>
    </rdf:RDF>
  </metadata>
  <defs
     id="defs4152" />
  <sodipodi:namedview
     pagecolor="#ffffff"
     bordercolor="#666666"
     borderopacity="1"
     objecttolerance="10"
     gridtolerance="10"
     guidetolerance="10"
     inkscape:pageopacity="0"
     inkscape:pageshadow="2"
     inkscape:window-width="1920"
     inkscape:window-height="993"
     id="namedview4150"
     showgrid="false"
     inkscape:zoom="0.1674"
     inkscape:cx="1054.1585"
     inkscape:cy="832.57325"
     inkscape:window-x="0"
     inkscape:window-y="24"
     inkscape:window-maximized="1"
     inkscape:current-layer="svg4136" />
  <path
     style="fill:#c51e05;fill-opacity:1"
     d="m 6.2689139,199.49218 c 0.7996186,-12.04722 7.5996481,-45.66919 9.3742551,-46.35016 0.358854,-0.1377 6.887503,1.28729 14.508182,3.16669 7.620679,1.87938 17.332475,4.21321 21.581763,5.18631 4.249288,0.97311 7.952277,2.05043 8.228892,2.39404 0.349895,0.43478 0.319244,2.21716 -0.101387,5.86102 -0.760764,6.5908 -1.620079,26.69872 -1.269807,29.71338 0.144767,1.24566 0.123547,2.82104 -0.04715,3.50084 l -0.310285,1.23589 -26.138551,0 -26.1385988,0 0.312642,-4.70801 z M 198.47634,202.9643 c -0.1707,-0.6798 -0.19193,-2.25518 -0.0471,-3.50084 0.35036,-3.01466 -0.50904,-23.12258 -1.26985,-29.71338 -0.42063,-3.64386 -0.45129,-5.42624 -0.10142,-5.86102 0.2768,-0.34376 3.97965,-1.42093 8.22893,-2.39404 4.24929,-0.9731 13.96109,-3.30693 21.58176,-5.18631 7.62064,-1.8794 14.14933,-3.30439 14.50818,-3.16669 1.77462,0.68097 8.57459,34.30294 9.37426,46.35016 l 0.31264,4.70801 -26.13855,0 -26.13854,0 -0.31029,-1.23589 z M 41.592768,143.6238 c -10.623219,-4.60942 -19.749531,-8.70503 -20.280691,-9.10141 -0.952969,-0.71112 -0.953959,-0.75487 -0.07403,-3.30629 2.548149,-7.38805 12.962469,-31.594868 14.078737,-32.724298 0.581286,-0.58807 3.219786,0.54776 18.927608,8.148078 10.038724,4.85725 18.43931,9.00238 18.667969,9.21141 0.228704,0.20892 -0.454581,2.51797 -1.518083,5.13096 -2.67825,6.57967 -5.55611,15.7388 -7.106541,22.6173 -1.732592,7.68679 -1.896694,8.1924 -2.695838,8.30694 -0.376304,0.0538 -9.376002,-3.67328 -19.999221,-8.28269 z m 152.817532,7.18741 c -0.25889,-0.68121 -0.47108,-1.50748 -0.47108,-1.8361 0,-0.32867 -0.75048,-3.6282 -1.66776,-7.33242 -1.80271,-7.28007 -4.50511,-15.60837 -7.0152,-21.61958 -0.8786,-2.10422 -1.39062,-3.94999 -1.15546,-4.16525 0.23248,-0.21268 8.63585,-4.36073 18.67457,-9.21798 15.70778,-7.600318 18.34633,-8.736148 18.92757,-8.148078 0.82375,0.83343 4.35931,8.712618 9.40698,20.964068 5.38903,13.07989 5.71063,14.07247 4.82935,14.90496 -0.73069,0.69017 -39.73442,17.68901 -40.58733,17.68901 -0.25887,0 -0.68281,-0.55738 -0.94183,-1.23863 z M 62.197465,94.047293 C 53.653478,87.641576 46.662941,82.222646 46.662941,82.005165 c 0,-0.868098 6.119762,-8.440014 10.690746,-13.227632 6.470316,-6.776869 17.861088,-15.716778 20.025578,-15.716778 0.904682,0 24.814155,27.899817 24.814155,28.955487 0,0.57662 -1.26709,1.672418 -3.654007,3.160135 -4.952617,3.086853 -11.299623,9.243728 -15.886167,15.410323 -2.089279,2.80901 -4.051234,5.10728 -4.359962,5.10728 -0.308869,0 -7.551833,-5.24103 -16.095819,-11.646687 z m 112.191305,6.568927 c -4.60673,-6.193717 -10.94798,-12.348271 -15.90814,-15.439843 -2.38692,-1.487717 -3.65399,-2.583515 -3.65399,-3.160135 0,-1.05567 23.90942,-28.955487 24.81413,-28.955487 2.16451,0 13.55527,8.939909 20.02559,15.716778 4.56592,4.782338 10.69075,12.359303 10.69075,13.225509 0,0.504988 -30.33872,23.276968 -31.37127,23.546978 -0.53522,0.14005 -1.96333,-1.39276 -4.59707,-4.9338 z M 112.09912,77.480909 c -0.36734,-0.284823 -2.93421,-5.298359 -5.70433,-11.14113 -2.7701,-5.842771 -6.16187,-12.886406 -7.537268,-15.652462 -1.375385,-2.766102 -2.395647,-5.303026 -2.267243,-5.637643 0.339526,-0.884215 12.800641,-4.808318 18.122201,-5.706727 6.067,-1.02422 21.27356,-1.039971 27.51049,-0.02829 5.21202,0.845264 17.85908,4.82916 18.2068,5.735254 0.12826,0.334334 -0.89186,2.871495 -2.26725,5.637598 -1.37538,2.766102 -4.76715,9.809737 -7.53726,15.652503 -2.77011,5.842771 -5.33707,10.856263 -5.70432,11.141086 -0.44514,0.345653 -1.681,0.38291 -3.71058,0.112233 -1.67356,-0.223047 -7.38872,-0.405537 -12.70033,-0.405537 -5.31161,0 -11.02678,0.18249 -12.70033,0.405537 -2.02958,0.270677 -3.2652,0.23342 -3.71058,-0.112233 z"
     id="path4221"
     inkscape:connector-curvature="0" />
</svg>
